<svg xmlns="http://www.w3.org/2000/svg" version="1.1" xmlns:xlink="http://www.w3.org/1999/xlink" xmlns:svgjs="http://svgjs.com/svgjs" id="Pattern1707SvgRootPreview" width="100%" height="100%"><defs><pattern x="0" y="0" width="1" height="1" patternUnits="userSpaceOnUse" id="Pattern1707Layer1"><g id="PatternRootContent1"><g id="Pattern1707Layer1background"><rect width="1" height="1" id="Pattern1707Background1" class="color_1 fill_color_1" fill="#ebe8ff"></rect></g></g></pattern><pattern x="0" y="0" width="18" height="76" patternUnits="userSpaceOnUse" id="Pattern1707Layer2" patternTransform="matrix(-0.565685424949238,0.5656854249492381,-0.5656854249492381,-0.565685424949238,0,0)"><g id="PatternRootContent2"><g id="Pattern1707Layer2Element2"><use xlink:href="#Pattern1707Element2" x="10.582916259765625" y="-44.24692344665527" transform="translate(18, -19) scale(1) translate(-18, 19) rotate(0, 18, -19)"></use><use xlink:href="#Pattern1707Element2" x="-7.417083740234375" y="-44.24692344665527" transform="translate(0, -19) scale(1) translate(0, 19) rotate(0, 0, -19)"></use><use xlink:href="#Pattern1707Element2" x="1.582916259765625" y="-6.246923446655273" transform="translate(9, 19) scale(1) translate(-9, -19) rotate(0, 9, 19)"></use><use xlink:href="#Pattern1707Element2" x="-16.417083740234375" y="-6.246923446655273" transform="translate(-9, 19) scale(1) translate(9, -19) rotate(0, -9, 19)"></use><use xlink:href="#Pattern1707Element2" x="10.582916259765625" y="31.753076553344727" transform="translate(18, 57) scale(1) translate(-18, -57) rotate(0, 18, 57)"></use><use xlink:href="#Pattern1707Element2" x="-7.417083740234375" y="31.753076553344727" transform="translate(0, 57) scale(1) translate(0, -57) rotate(0, 0, 57)"></use><use xlink:href="#Pattern1707Element2" x="1.582916259765625" y="69.75307655334473" transform="translate(9, 95) scale(1) translate(-9, -95) rotate(0, 9, 95)"></use><use xlink:href="#Pattern1707Element2" x="1.582916259765625" y="69.75307655334473" transform="translate(9, 95) scale(1) translate(-9, -95) rotate(0, 9, 95)"></use></g></g></pattern><symbol id="Pattern1707Element2"><g class="color_3 fill_color_3" fill="#c8cce8"><path d="M7.244,50.458003997802734c0.028,0.011,0.056,0.021,0.085,0.027c0.009,0.001,0.017,0.007,0.025,0.008c0.022,0.003,0.043,-0.003,0.065,-0.003c0.023,0,0.043,0.006,0.065,0.003c0.009,-0.001,0.017,-0.007,0.025,-0.008c0.029,-0.006,0.057,-0.017,0.085,-0.027c0.028,-0.011,0.057,-0.021,0.083,-0.037c0.022,-0.014,0.041,-0.031,0.061,-0.049c0.025,-0.022,0.049,-0.042,0.069,-0.067c0.016,-0.019,0.025,-0.04,0.037,-0.062c0.018,-0.032,0.036,-0.063,0.047,-0.099c0.002,-0.007,0.007,-0.012,0.009,-0.018c0.004,-0.009,1.086,-4.088,2.491,-8.494c1.378,-4.383,3.187,-9.177,4.297,-10.238c0.195,-0.195,0.195,-0.514,-0.002,-0.707c-0.194,-0.195,-0.512,-0.195,-0.706,0c-1.454,1.502,-3.102,6.185,-4.541,10.642c-0.578,1.814,-1.103,3.573,-1.521,5.019L7.918,18.507001876831055c0,-0.277,-0.224,-0.501,-0.501,-0.501c-0.277,0,-0.501,0.224,-0.501,0.501l0,27.84c-0.418,-1.445,-0.942,-3.204,-1.521,-5.019c-1.438,-4.457,-3.087,-9.14,-4.541,-10.642c-0.194,-0.195,-0.512,-0.195,-0.706,0c-0.197,0.193,-0.197,0.512,-0.002,0.707c1.109,1.061,2.919,5.855,4.297,10.238c1.405,4.406,2.487,8.485,2.491,8.494c0.002,0.007,0.007,0.012,0.009,0.018c0.011,0.035,0.028,0.066,0.047,0.099c0.012,0.021,0.021,0.043,0.037,0.062c0.021,0.025,0.044,0.046,0.069,0.067c0.021,0.018,0.039,0.035,0.062,0.049C7.188,50.438,7.216,50.447,7.244,50.458003997802734Z"></path><path d="M7.59,0.035843826830387115c-0.028,-0.011,-0.056,-0.021,-0.085,-0.027c-0.009,-0.001,-0.017,-0.007,-0.025,-0.008c-0.022,-0.003,-0.043,0.003,-0.065,0.003c-0.023,0,-0.043,-0.006,-0.065,-0.003c-0.009,0.001,-0.017,0.007,-0.025,0.008c-0.029,0.006,-0.057,0.017,-0.085,0.027c-0.028,0.011,-0.057,0.021,-0.083,0.037c-0.022,0.014,-0.041,0.031,-0.061,0.049c-0.025,0.022,-0.049,0.042,-0.069,0.067c-0.016,0.019,-0.025,0.04,-0.037,0.062c-0.018,0.032,-0.036,0.063,-0.047,0.099c-0.002,0.007,-0.007,0.012,-0.009,0.018c-0.004,0.009,-1.086,4.088,-2.491,8.494c-1.378,4.383,-3.187,9.177,-4.297,10.238c-0.195,0.195,-0.195,0.514,0.002,0.707c0.194,0.195,0.512,0.195,0.706,0c1.454,-1.502,3.102,-6.185,4.541,-10.642c0.578,-1.814,1.103,-3.573,1.521,-5.019L6.916,31.98684310913086c0,0.277,0.224,0.501,0.501,0.501c0.277,0,0.501,-0.224,0.501,-0.501l0,-27.84c0.418,1.445,0.942,3.204,1.521,5.019c1.438,4.457,3.087,9.14,4.541,10.642c0.194,0.195,0.512,0.195,0.706,0c0.197,-0.193,0.197,-0.512,0.002,-0.707c-1.109,-1.061,-2.919,-5.855,-4.297,-10.238c-1.405,-4.406,-2.487,-8.485,-2.491,-8.494c-0.002,-0.007,-0.007,-0.012,-0.009,-0.018c-0.011,-0.035,-0.028,-0.066,-0.047,-0.099c-0.012,-0.021,-0.021,-0.043,-0.037,-0.062c-0.021,-0.025,-0.044,-0.046,-0.069,-0.067c-0.021,-0.018,-0.039,-0.035,-0.062,-0.049C7.646,0.056,7.618,0.047,7.59,0.035843826830387115Z"></path></g></symbol></defs><rect width="100%" height="100%" id="Pattern1707RctLayer1" fill="url(#Pattern1707Layer1)"></rect><rect width="100%" height="100%" id="Pattern1707RctLayer2" fill="url(#Pattern1707Layer2)"></rect></svg>